<?xml version="1.0" standalone="no"?>
<!DOCTYPE svg PUBLIC "-//W3C//DTD SVG 20010904//EN"
 "http://www.w3.org/TR/2001/REC-SVG-20010904/DTD/svg10.dtd">
<svg version="1.0" xmlns="http://www.w3.org/2000/svg"
 width="360.000000pt" height="360.000000pt" viewBox="0 0 360.000000 360.000000"
 preserveAspectRatio="xMidYMid meet">

<g transform="translate(0.000000,360.000000) scale(0.100000,-0.100000)"
fill="#000000" stroke="none">
<path d="M601 2322 c-10 -18 1 -19 222 -26 128 -4 248 -11 269 -16 24 -7 53
-29 89 -68 96 -104 130 -177 97 -210 -9 -9 -106 -12 -374 -12 l-362 0 10 -42
c30 -135 153 -379 264 -524 l57 -74 239 0 c218 0 240 -2 234 -16 -12 -32 13
-44 94 -44 104 0 119 12 125 100 3 36 10 117 16 180 15 153 -1 310 -36 364
-10 14 -44 39 -76 54 -57 28 -58 29 -36 41 13 7 48 18 78 24 43 10 54 17 54
32 0 25 -39 45 -87 45 -28 0 -41 -6 -53 -23 -8 -13 -26 -29 -39 -35 -22 -10
-27 -7 -58 41 -54 81 -135 164 -181 186 -52 25 -211 41 -398 41 -124 0 -139
-2 -148 -18z m839 -423 c36 -21 60 -54 60 -84 0 -30 -69 -92 -115 -104 -87
-22 -175 -3 -175 39 0 28 34 92 71 135 27 30 37 35 76 35 28 0 60 -8 83 -21z"/>
<path d="M2070 2031 l0 -191 45 0 45 0 0 70 c0 61 2 70 19 70 13 0 27 -20 49
-70 l31 -70 56 0 57 0 -42 77 c-42 75 -42 76 -22 92 42 34 54 90 28 140 -26
49 -59 62 -167 68 l-99 6 0 -192z m180 84 c25 -31 -16 -67 -67 -57 -19 3 -23
11 -23 38 0 33 1 34 39 34 22 0 44 -6 51 -15z"/>
<path d="M3040 2150 c0 -29 -4 -40 -15 -40 -10 0 -15 -10 -15 -29 0 -16 6 -31
15 -35 12 -4 15 -23 15 -81 0 -67 3 -79 25 -100 18 -18 35 -25 65 -25 39 0 40
1 40 35 0 28 -4 35 -20 35 -18 0 -20 7 -20 70 0 63 2 70 20 70 16 0 20 7 20
30 0 23 -4 30 -20 30 -17 0 -20 7 -20 40 l0 40 -45 0 -45 0 0 -40z"/>
<path d="M2481 2113 c-19 -10 -43 -30 -54 -44 -44 -61 -27 -177 32 -212 38
-22 124 -22 162 0 35 21 35 23 4 53 -20 18 -28 21 -37 12 -24 -24 -98 -9 -98
20 0 4 38 8 85 8 l85 0 0 43 c0 23 -6 53 -13 66 -29 58 -109 84 -166 54z m68
-63 c10 -5 21 -16 25 -25 4 -12 -3 -15 -39 -15 -48 0 -62 19 -27 39 21 13 20
13 41 1z"/>
<path d="M2845 2121 c-11 -5 -44 -6 -72 -3 l-53 5 0 -142 0 -141 45 0 45 0 0
100 c0 84 3 102 16 107 38 14 49 -10 52 -111 l3 -96 45 0 46 0 -3 115 c-4 107
-6 116 -29 139 -29 28 -66 39 -95 27z"/>
<path d="M2165 1760 c-17 -5 -44 -23 -60 -40 -30 -31 -30 -32 -30 -146 l0
-116 37 -34 c22 -20 49 -35 65 -36 101 -5 156 25 178 100 6 21 3 22 -42 22
-37 0 -51 -4 -61 -20 -8 -13 -23 -20 -42 -20 -37 0 -50 27 -50 105 0 101 34
135 89 89 29 -24 94 -34 105 -16 8 14 -27 74 -54 94 -31 22 -95 30 -135 18z"/>
<path d="M2420 1652 l-22 -17 22 -20 c15 -14 36 -20 68 -20 35 0 47 -4 50 -16
2 -13 -8 -17 -52 -21 -72 -6 -96 -27 -96 -83 0 -71 73 -111 139 -76 14 8 21 8
21 1 0 -5 18 -10 40 -10 l40 0 0 111 c0 109 0 111 -29 140 -27 26 -36 29 -94
29 -47 0 -71 -5 -87 -18z m120 -167 c0 -8 -10 -19 -21 -26 -17 -9 -25 -8 -36
4 -21 20 -8 37 28 37 19 0 29 -5 29 -15z"/>
<path d="M2691 1530 l1 -140 44 0 44 0 0 89 c0 99 13 126 53 116 25 -7 84 46
73 64 -9 14 -81 14 -107 1 -13 -7 -19 -7 -19 0 0 5 -20 10 -45 10 l-44 0 0
-140z"/>
</g>
</svg>
